<svg xmlns="http://www.w3.org/2000/svg" shape-rendering="geometricPrecision" text-rendering="geometricPrecision" image-rendering="optimizeQuality" fill-rule="evenodd" clip-rule="evenodd" viewBox="0 0 512 442.57"><path d="M384.86 52.77c-1.15 7.37-2.86 14.11-5.21 20.79-2.33 6.61-5.25 13.04-8.85 19.87-6.14 11.63-14.65 19.42-23.22 27.25-3.29 3.01-6.61 6.04-9.57 9.11-6.16 6.36-8.97 13.18-8.64 19.92.36 7.13 4.15 14.56 11.15 21.67 7.12 7.24 14.64 11.22 21.89 11.66 6.83.41 13.76-2.38 20.22-8.63 3.07-2.97 6.09-6.28 9.09-9.57 7.84-8.57 15.62-17.08 27.26-23.22 6.83-3.61 13.26-6.53 19.87-8.86 6.68-2.35 13.42-4.06 20.79-5.21 12.01-1.87 20.97-6.33 27.14-12.45 4.69-4.65 7.84-10.34 9.56-16.61 1.75-6.42 2.01-13.51.88-20.79-2.22-14.23-9.7-28.98-21.63-41.01-12.06-12.17-26.78-19.72-40.95-21.93-7.16-1.11-14.14-.85-20.47.88-6.2 1.7-11.83 4.79-16.46 9.39-6.31 6.26-10.93 15.42-12.85 27.74zm-332.1 75.31c7.37 1.14 14.12 2.86 20.8 5.21 6.6 2.33 13.04 5.25 19.87 8.86 11.63 6.14 19.41 14.65 27.24 23.22 3.01 3.29 6.03 6.6 9.1 9.57 6.36 6.17 13.18 8.97 19.93 8.64 7.13-.36 14.55-4.15 21.66-11.14 7.25-7.12 11.23-14.64 11.68-21.9.41-6.83-2.38-13.75-8.64-20.21-2.97-3.07-6.27-6.09-9.56-9.1-8.57-7.84-17.09-15.62-23.22-27.26-3.61-6.83-6.53-13.26-8.85-19.87-2.36-6.68-4.07-13.42-5.21-20.8-1.87-12-6.34-20.96-12.45-27.13-4.65-4.69-10.34-7.84-16.61-9.56-6.42-1.76-13.51-2.02-20.79-.89-14.22 2.22-28.99 9.7-41.02 21.63-12.16 12.06-19.71 26.78-21.92 40.94-1.12 7.16-.86 14.14.87 20.47 1.69 6.2 4.79 11.83 9.38 16.46 6.26 6.32 15.43 10.94 27.74 12.86zm73.37 35.44 15.73-15.73-9.74-9.74-15.41 15.4c-1.51-1.53-3.07-3.04-4.7-4.51-.35-.32-.71-.64-1.07-.96l15.56-15.55-10.07-10.08-17.08 17.07c-1.12-.67-2.27-1.32-3.46-1.95-1.29-.68-2.57-1.34-3.85-1.98l18.77-18.76-9.1-9.1-21.62 21.61 1.45 1.45c-2.09-.86-4.16-1.66-6.23-2.38l-.02-.01c-3.53-1.24-7.03-2.3-10.56-3.2l-5.77-5.76-3.79 3.78c-.53-.09-1.06-.17-1.6-.26a57.86 57.86 0 0 1-7.68-1.7l7.45-7.44-9.89-9.9-10.93 10.92a31.19 31.19 0 0 1-3.75-3.24c-.71-.72-1.38-1.47-2.01-2.24L37.83 98.2l-9.9-9.9-7.57 7.57c-.52-2.3-.84-4.7-.94-7.17-.05-1.02-.05-2.06-.03-3.1l2.92-2.92-2.49-2.49c.05-.36.11-.72.16-1.09a57.86 57.86 0 0 1 1.89-8.11l6.06 6.07 21.62-21.61-11.69-11.69c.82-.9 1.68-1.79 2.56-2.66 1.01-1.01 2.05-1.98 3.1-2.92l11.65 11.65 20.76-20.75-6.09-6.1c2.9-.91 5.8-1.59 8.68-2.04l.44-.07 2.59 2.59 3.11-3.11c1.23-.04 2.44-.04 3.64.01 2.32.1 4.58.38 6.75.84l-7.88 7.88 9.89 9.9 11.55-11.55c.96.76 1.87 1.58 2.75 2.46.99.99 1.92 2.07 2.8 3.24L102.68 44.6l9.9 9.9 8.06-8.07a57.51 57.51 0 0 1 1.7 7.68c.09.54.17 1.08.26 1.6l-4.4 4.41 6.81 6.82c.81 3.01 1.73 5.97 2.77 8.92.97 2.77 2.07 5.55 3.28 8.37l-2.97-2.98-20.76 20.76 9.1 9.1 18.53-18.53c.64 1.28 1.3 2.56 1.98 3.85.63 1.19 1.28 2.34 1.95 3.46l-16.84 16.84 10.07 10.08 15.32-15.32.96 1.08c1.48 1.62 2.98 3.18 4.51 4.69l-15.17 15.17 9.74 9.74 15.5-15.49c1.95 1.79 3.9 3.6 5.78 5.46l-15.66 15.65 17.61 17.61c-.93 1.1-1.95 2.19-3.05 3.27-.86.84-1.71 1.62-2.57 2.36l-17.61-17.61-15.89 15.88c-1.86-1.88-3.67-3.83-5.46-5.78zM43.45 92.58l21.61-21.61-9.89-9.9-21.62 21.61 9.9 9.9zm27.23-27.23L91.44 44.6l-9.89-9.9-20.76 20.76 9.89 9.89zm26.38-15.13L76.3 70.97l9.9 9.9 20.76-20.75-9.9-9.9zM70.68 76.59 49.06 98.2l9.9 9.9 21.62-21.61-9.9-9.9zm3.79 47.03 21.62-21.61-9.89-9.9-21.62 21.61 9.89 9.9zm27.24-27.23 20.76-20.76-9.89-9.89-20.77 20.75 9.9 9.9zm121.42 108.72 32.79 32.8 33.35-33.35-.15-.15c-1.18-10.62 11.36-16.03 16.02-29.17 3.62-10.2 3.91-17.06 10.25-29.52.71-9.03 4.81-17.78 12.51-25.73 3.4-3.51 6.78-6.6 10.16-9.69 7.66-7 15.28-13.97 20.29-23.46 3.32-6.29 5.97-12.12 8.03-17.96 2.03-5.77 3.53-11.69 4.55-18.25 2.41-15.49 8.48-27.27 16.87-35.59 6.44-6.39 14.18-10.67 22.63-12.98 8.31-2.27 17.29-2.64 26.35-1.23 17.02 2.65 34.57 11.59 48.8 25.95 14.07 14.18 22.92 31.74 25.57 48.78 1.43 9.18 1.07 18.27-1.23 26.68-2.35 8.56-6.71 16.38-13.23 22.85-8.22 8.15-19.77 14.04-34.9 16.4-6.57 1.02-12.49 2.51-18.25 4.54-5.85 2.06-11.67 4.72-17.96 8.04-9.51 5.01-16.47 12.63-23.48 20.29-3.08 3.37-6.17 6.76-9.68 10.16-7.97 7.72-16.75 11.82-25.78 12.53-12.42 6.32-19.27 6.61-29.46 10.22-13.15 4.67-18.56 17.21-29.17 16.03l-.15-.15-33.36 33.35 167.16 167.2c.38.38.38 1.02 0 1.4l-17.19 17.18a.984.984 0 0 1-1.4 0L255.92 275.09 89.3 441.71c-.39.38-1.02.38-1.4 0l-17.19-17.19a.984.984 0 0 1 0-1.4L237.33 256.5l-32.79-32.81-.15.15c-10.62 1.18-16.02-11.36-29.17-16.02-10.2-3.63-17.06-3.91-29.51-10.26-9.03-.71-17.78-4.82-25.73-12.51-3.51-3.4-6.61-6.79-9.69-10.16-7.01-7.66-13.97-15.28-23.46-20.29-6.29-3.32-12.12-5.98-17.96-8.04-5.77-2.03-11.69-3.53-18.25-4.55-15.49-2.41-27.27-8.49-35.58-16.87-6.39-6.45-10.68-14.19-12.98-22.63C-.21 94.19-.58 85.21.84 76.15c2.64-17.02 11.59-34.56 25.94-48.79C40.97 13.29 58.54 4.44 75.57 1.79 84.75.36 93.85.73 102.25 3.03c8.56 2.34 16.38 6.7 22.85 13.23 8.15 8.22 14.04 19.77 16.39 34.9 1.02 6.57 2.51 12.48 4.54 18.26 2.06 5.84 4.72 11.66 8.04 17.96 5.01 9.5 12.62 16.46 20.29 23.47 3.37 3.08 6.76 6.18 10.15 9.69 7.72 7.97 11.82 16.75 12.53 25.78 6.32 12.43 6.61 19.28 10.22 29.47 4.66 13.14 17.2 18.55 16.02 29.16l-.15.16zm126.29-78.97 15.74 15.73 9.74-9.74-15.4-15.41c1.53-1.51 3.04-3.07 4.51-4.7.32-.35.64-.71.96-1.07l15.55 15.56 10.08-10.08-17.08-17.07c.68-1.12 1.33-2.27 1.96-3.46.67-1.29 1.33-2.57 1.97-3.85l18.77 18.76 9.1-9.1-21.61-21.61-1.46 1.45c.86-2.09 1.66-4.16 2.38-6.23l.01-.02c1.24-3.53 2.31-7.03 3.2-10.57l5.76-5.77-3.78-3.78c.08-.53.17-1.06.25-1.6.43-2.73 1-5.29 1.7-7.69l7.45 7.45 9.9-9.89-10.92-10.92c1.01-1.37 2.09-2.62 3.23-3.76.72-.71 1.47-1.38 2.24-2.01l11.07 11.07 9.89-9.9-7.57-7.57c2.3-.52 4.7-.84 7.17-.94 1.03-.05 2.06-.05 3.1-.03l2.92 2.92 2.49-2.49c.36.05.73.1 1.09.16 2.69.42 5.4 1.05 8.11 1.88l-6.07 6.07 21.62 21.61 11.69-11.69c.9.83 1.79 1.68 2.66 2.56 1.01 1.01 1.98 2.05 2.92 3.1l-11.65 11.65 20.75 20.76 6.1-6.09c.91 2.9 1.6 5.8 2.05 8.68l.06.44-2.59 2.59 3.11 3.11c.05 1.23.04 2.44-.01 3.64-.1 2.32-.38 4.58-.84 6.75l-7.88-7.88-9.89 9.9 11.54 11.54c-.75.96-1.57 1.88-2.46 2.75-.99.99-2.06 1.92-3.23 2.8l-11.47-11.47-9.9 9.89 8.06 8.07c-2.38.7-4.94 1.27-7.67 1.7-.54.08-1.08.17-1.61.26l-4.4-4.41-6.82 6.82c-3.01.81-5.97 1.73-8.92 2.77-2.77.97-5.55 2.07-8.37 3.28l2.98-2.97-20.76-20.76-9.1 9.1 18.53 18.53c-1.28.64-2.56 1.3-3.85 1.98-1.19.63-2.34 1.28-3.46 1.95l-16.84-16.84-10.08 10.08 15.32 15.32c-.36.32-.72.64-1.07.96-1.63 1.47-3.19 2.98-4.7 4.5l-15.17-15.16-9.74 9.74 15.49 15.5c-1.79 1.95-3.59 3.89-5.46 5.78l-15.65-15.66-17.61 17.61c-1.09-.93-2.18-1.95-3.27-3.05-.83-.85-1.62-1.71-2.35-2.57l17.61-17.61-15.9-15.89c1.89-1.86 3.84-3.67 5.78-5.46zm70.94-82.69 21.61 21.61 9.9-9.9-21.62-21.61-9.89 9.9zm27.23 27.23 20.76 20.76 9.89-9.9-20.75-20.76-9.9 9.9zm15.14 26.38L441.97 76.3l-9.9 9.9 20.76 20.75 9.9-9.89zm-26.38-26.38-21.61-21.61-9.9 9.89 21.61 21.62 9.9-9.9zm-47.03 3.8 21.62 21.61 9.9-9.89-21.62-21.62-9.9 9.9zm27.24 27.23 20.75 20.76 9.9-9.9-20.76-20.75-9.89 9.89z"/></svg>